<?xml version="1.0" standalone="no"?>
<!DOCTYPE svg PUBLIC "-//W3C//DTD SVG 20010904//EN"
 "http://www.w3.org/TR/2001/REC-SVG-20010904/DTD/svg10.dtd">
<svg version="1.0" xmlns="http://www.w3.org/2000/svg"
 width="1200.000000pt" height="1200.000000pt" viewBox="0 0 1200.000000 1200.000000"
 preserveAspectRatio="xMidYMid meet">

<g transform="translate(0.000000,1200.000000) scale(0.100000,-0.100000)"
fill="#000000" stroke="none">
<path d="M5353 7334 c-22 -22 -25 -32 -21 -69 5 -43 5 -43 -31 -50 -88 -16
-184 -92 -223 -179 -22 -50 -23 -58 -23 -366 0 -301 1 -317 21 -361 31 -67 87
-124 152 -156 l57 -28 715 0 c709 0 715 0 761 21 99 46 159 127 180 240 7 36
9 161 7 329 -3 257 -5 273 -27 322 -30 68 -102 134 -174 162 -32 11 -64 21
-72 21 -10 0 -15 10 -15 28 0 42 -17 52 -85 52 -68 0 -85 -10 -85 -52 l0 -28
-392 0 -393 0 0 55 c0 80 -9 84 -183 85 -140 0 -143 0 -169 -26z m64 -86 c-2
-18 -4 -4 -4 32 0 36 2 50 4 33 2 -18 2 -48 0 -65z m40 0 c-2 -18 -4 -4 -4 32
0 36 2 50 4 33 2 -18 2 -48 0 -65z m113 26 c0 -30 -4 -54 -10 -54 -6 0 -10 27
-10 61 0 37 4 58 10 54 6 -3 10 -31 10 -61z m27 -26 c-2 -18 -4 -4 -4 32 0 36
2 50 4 33 2 -18 2 -48 0 -65z m43 26 c0 -30 -4 -54 -10 -54 -6 0 -10 27 -10
61 0 37 4 58 10 54 6 -3 10 -31 10 -61z m-253 -26 c-2 -18 -4 -6 -4 27 0 33 2
48 4 33 2 -15 2 -42 0 -60z m100 0 c-2 -18 -4 -6 -4 27 0 33 2 48 4 33 2 -15
2 -42 0 -60z m40 0 c-2 -18 -4 -6 -4 27 0 33 2 48 4 33 2 -15 2 -42 0 -60z
m140 0 c-2 -18 -4 -6 -4 27 0 33 2 48 4 33 2 -15 2 -42 0 -60z m1083 -89 c55
-25 105 -71 133 -124 21 -38 22 -54 25 -343 4 -355 0 -375 -78 -452 -83 -84
-48 -81 -851 -78 -664 3 -706 4 -739 22 -49 26 -98 74 -123 121 -21 38 -22 54
-25 353 l-3 313 25 52 c14 29 31 59 38 67 23 28 86 71 115 80 15 4 345 9 733
9 688 1 706 0 750 -20z"/>
<path d="M5262 7124 c-25 -17 -31 -81 -10 -102 8 -8 62 -12 178 -12 116 0 170
4 178 12 7 7 12 29 12 49 0 62 -20 69 -190 69 -116 0 -150 -3 -168 -16z m68
-54 c0 -48 -1 -50 -28 -50 -36 0 -52 17 -52 55 0 40 5 45 47 45 33 0 33 0 33
-50z m278 12 c4 -43 -12 -62 -54 -62 l-34 0 0 51 0 50 43 -3 c40 -3 42 -5 45
-36z"/>
<path d="M5890 7074 c-252 -67 -381 -353 -266 -589 139 -284 538 -314 719 -55
223 319 -76 745 -453 644z m272 -56 c240 -112 296 -431 108 -618 -27 -28 -76
-63 -108 -78 -50 -24 -69 -27 -162 -27 -96 0 -110 3 -165 29 -127 63 -205 179
-213 316 -6 99 10 165 57 238 45 69 102 116 179 149 49 20 71 23 152 21 78 -3
105 -8 152 -30z"/>
<path d="M5930 6996 c-72 -16 -113 -38 -164 -90 -194 -193 -86 -522 186 -566
174 -28 338 88 375 264 30 145 -43 297 -174 365 -32 16 -142 43 -162 40 -3 0
-31 -6 -61 -13z"/>
<path d="M6516 6334 c-18 -18 -20 -47 -6 -75 10 -17 22 -19 123 -19 124 0 137
5 137 55 0 49 -13 55 -131 55 -84 0 -111 -3 -123 -16z m239 -39 l0 -40 -113
-3 c-110 -3 -112 -2 -123 21 -8 18 -8 30 0 46 11 20 18 21 124 19 l112 -3 0
-40z"/>
<path d="M7230 5895 l0 -85 1250 0 1250 0 0 85 0 85 -1250 0 -1250 0 0 -85z"/>
<path d="M2270 5880 l0 -80 1250 0 1250 0 0 80 0 80 -1250 0 -1250 0 0 -80z"/>
<path d="M3346 5363 c-3 -10 -10 -64 -17 -120 -7 -57 -16 -103 -21 -103 -5 0
-18 5 -30 11 -28 15 -98 13 -139 -4 -112 -46 -195 -229 -170 -372 13 -71 34
-103 84 -128 49 -25 102 -16 167 28 l48 33 7 -27 c9 -35 21 -41 82 -41 51 0
52 1 58 33 6 36 85 682 85 697 0 6 -32 10 -74 10 -62 0 -75 -3 -80 -17z m-53
-330 c5 -3 6 -33 2 -66 -17 -146 -111 -255 -159 -185 -42 60 10 231 78 258 19
8 59 4 79 -7z"/>
<path d="M5465 5338 c-3 -24 -21 -173 -40 -333 -19 -159 -38 -307 -41 -327
l-6 -38 80 0 79 0 6 38 c3 20 11 82 18 137 14 118 43 183 95 211 32 17 35 17
50 2 16 -16 16 -27 0 -165 -9 -81 -20 -165 -23 -185 l-6 -38 82 0 c50 0 81 4
81 10 0 6 9 88 21 182 25 205 21 248 -26 295 -45 45 -108 48 -187 8 l-48 -24
0 22 c0 12 7 69 15 127 8 58 15 108 15 113 0 4 -36 7 -79 7 l-80 0 -6 -42z"/>
<path d="M9281 5028 c-24 -194 -45 -361 -47 -370 -5 -16 3 -18 74 -18 93 0 84
-14 103 155 7 64 20 128 32 153 33 73 108 118 124 75 6 -16 -22 -326 -33 -365
-5 -16 3 -18 74 -18 94 0 82 -24 108 215 20 187 16 225 -31 272 -29 29 -40 33
-83 33 -59 0 -98 -13 -129 -42 -22 -21 -23 -21 -23 -2 0 10 7 66 15 124 21
154 27 140 -63 140 l-79 0 -42 -352z"/>
<path d="M1872 5003 l-171 -358 76 -3 c91 -3 100 3 137 93 l24 60 118 3 c85 2
120 -1 125 -10 4 -6 11 -35 14 -63 10 -75 24 -85 113 -85 72 0 74 1 69 23 -3
12 -40 174 -83 360 l-78 337 -87 0 -86 0 -171 -357z m267 53 c12 -70 20 -130
18 -133 -3 -2 -41 -3 -85 -1 l-80 3 57 137 c31 75 59 134 62 130 3 -4 16 -65
28 -136z"/>
<path d="M4076 5351 c-12 -19 -18 -207 -7 -233 14 -37 63 -39 85 -5 18 26 42
119 50 195 l7 52 -65 0 c-36 0 -67 -4 -70 -9z"/>
<path d="M4896 5323 c-3 -21 -22 -171 -41 -333 -19 -162 -37 -307 -40 -322
l-4 -28 83 0 84 0 12 103 c17 145 7 133 108 141 147 11 241 72 273 177 18 60
13 151 -10 196 -43 85 -96 103 -302 103 l-157 0 -6 -37z m297 -111 c23 -24 29
-78 14 -135 -11 -41 -61 -67 -128 -67 l-55 0 12 98 c7 53 13 105 14 116 0 16
7 18 60 14 45 -3 66 -10 83 -26z"/>
<path d="M6599 5300 c-9 -5 -27 -39 -40 -75 -21 -61 -26 -66 -61 -75 -27 -8
-39 -17 -44 -35 -10 -40 -1 -60 30 -63 28 -4 29 -4 22 -55 -28 -238 -30 -262
-15 -291 23 -48 63 -71 123 -71 51 0 136 29 136 47 0 5 -9 26 -20 48 -18 36
-23 39 -50 34 -41 -9 -45 7 -30 134 18 161 13 151 78 154 l57 3 3 53 3 52 -56
0 c-52 0 -55 1 -50 23 2 12 6 45 7 72 l3 50 -40 2 c-22 2 -47 -2 -56 -7z"/>
<path d="M4410 5164 c-76 -12 -95 -19 -126 -46 -48 -42 -64 -77 -64 -142 0
-47 4 -59 29 -84 16 -15 51 -37 78 -47 26 -10 54 -22 61 -28 30 -24 1 -77 -43
-77 -14 0 -45 10 -71 23 l-46 22 -34 -39 c-19 -22 -33 -45 -31 -50 1 -6 25
-22 52 -36 113 -56 260 -17 312 83 20 39 19 119 -2 151 -9 14 -49 41 -91 60
-63 31 -74 39 -74 61 0 38 40 50 98 30 25 -8 53 -15 63 -15 20 0 64 64 54 80
-16 25 -122 60 -165 54z"/>
<path d="M6163 5159 c-137 -25 -233 -151 -233 -307 1 -117 51 -188 149 -212
168 -40 331 109 331 303 0 149 -105 241 -247 216z m81 -153 c9 -34 7 -118 -5
-160 -13 -46 -59 -96 -88 -96 -12 0 -31 10 -42 21 -19 19 -21 30 -17 103 5 94
30 148 76 164 34 11 68 -3 76 -32z"/>
<path d="M8465 5159 c-78 -10 -149 -45 -200 -100 -62 -67 -87 -126 -93 -221
-7 -114 30 -182 110 -202 42 -10 112 12 144 45 l28 30 16 -33 c14 -31 19 -33
72 -36 67 -4 57 -34 94 271 17 138 23 222 17 228 -14 14 -131 25 -188 18z m22
-181 c-14 -115 -68 -218 -114 -218 -49 0 -60 113 -17 197 27 56 73 93 115 93
l25 0 -9 -72z"/>
<path d="M9025 5160 c-40 -9 -74 -27 -107 -58 l-28 -26 0 27 c0 36 -34 57 -92
57 -37 0 -48 -4 -48 -16 0 -18 -68 -586 -75 -631 l-6 -33 79 0 79 0 10 85 c6
47 13 88 15 91 3 2 22 -3 44 -12 33 -14 46 -14 93 -4 140 31 242 238 202 408
-20 82 -89 128 -166 112z m5 -139 c33 -62 -7 -217 -65 -255 -27 -18 -88 -16
-99 3 -10 15 13 133 34 175 40 85 105 123 130 77z"/>
<path d="M2475 5128 c-7 -45 -55 -449 -55 -470 0 -16 10 -18 78 -18 l79 0 12
128 c9 97 18 139 37 179 40 83 106 120 124 68 3 -11 -1 -87 -11 -170 -10 -82
-18 -163 -18 -178 l-1 -28 78 3 77 3 17 140 c21 174 22 266 4 310 -36 84 -172
88 -258 7 l-28 -26 0 32 c0 38 -22 52 -84 52 -43 0 -45 -1 -51 -32z"/>
<path d="M3520 5149 c0 -5 27 -111 61 -235 l61 -225 -56 -98 c-31 -55 -56
-102 -56 -105 0 -3 31 -6 68 -6 53 0 72 4 84 18 18 19 338 639 338 653 0 5
-29 9 -64 9 -46 0 -69 -5 -84 -17 -11 -10 -44 -73 -73 -141 -28 -68 -55 -120
-59 -115 -4 4 -18 61 -30 126 -13 65 -29 125 -37 133 -17 17 -153 20 -153 3z"/>
<path d="M6964 5136 c-182 -85 -223 -388 -64 -476 35 -19 59 -25 105 -24 152
2 263 118 273 285 7 117 -22 180 -99 219 -55 29 -149 27 -215 -4z m148 -119
c17 -33 11 -142 -11 -191 -34 -77 -109 -100 -131 -40 -23 61 -4 181 37 226 36
40 84 43 105 5z"/>
<path d="M7485 5153 c-39 -11 -103 -63 -121 -100 -28 -57 -26 -149 5 -192 39
-54 127 -77 196 -51 23 9 26 8 21 -6 -3 -8 -6 -24 -6 -34 0 -15 -12 -18 -92
-22 -149 -6 -218 -53 -218 -146 0 -83 75 -131 204 -132 99 0 145 14 197 58 70
61 83 113 49 209 -26 74 -25 99 5 167 14 31 25 72 25 92 0 27 5 36 23 43 30
12 43 29 51 67 l7 32 -93 6 c-177 12 -233 14 -253 9z m106 -109 c15 -19 15
-84 -1 -113 -18 -35 -48 -45 -76 -26 -19 12 -24 24 -24 59 0 75 64 125 101 80z
m-38 -380 c42 -8 49 -28 17 -61 -39 -43 -135 -41 -146 2 -8 31 0 43 39 54 41
12 45 12 90 5z"/>
<path d="M7856 4928 c-16 -128 -30 -245 -33 -260 l-5 -28 79 0 80 0 16 129
c22 181 55 241 133 241 l42 0 12 64 c14 73 10 86 -26 86 -35 0 -77 -24 -108
-60 l-26 -32 0 31 c0 40 -32 61 -91 61 l-46 0 -27 -232z"/>
<path d="M9780 5144 c0 -9 27 -115 60 -235 l60 -219 -60 -105 -59 -105 74 0
c69 0 75 2 93 28 20 28 332 636 332 646 0 13 -126 5 -146 -9 -12 -8 -38 -54
-59 -102 -21 -48 -47 -108 -58 -133 l-20 -45 -28 139 c-16 77 -35 143 -41 148
-7 4 -43 8 -80 8 -56 0 -68 -3 -68 -16z"/>
</g>
</svg>
