<svg xmlns="http://www.w3.org/2000/svg" xmlns:xlink="http://www.w3.org/1999/xlink" width="500" zoomAndPan="magnify" viewBox="0 0 375 374.999991" height="500" preserveAspectRatio="xMidYMid meet" version="1.0"><defs><g/><clipPath id="141cb042fd"><path d="M 37.5 37.5 L 337.5 37.5 L 337.5 337.5 L 37.5 337.5 Z M 37.5 37.5 " clip-rule="nonzero"/></clipPath><clipPath id="8802cf23a5"><path d="M 187.5 37.5 C 104.65625 37.5 37.5 104.65625 37.5 187.5 C 37.5 270.34375 104.65625 337.5 187.5 337.5 C 270.34375 337.5 337.5 270.34375 337.5 187.5 C 337.5 104.65625 270.34375 37.5 187.5 37.5 " clip-rule="nonzero"/></clipPath><clipPath id="1f379c7f26"><path d="M 49.722656 49.171875 L 325.605469 49.171875 L 325.605469 325.605469 L 49.722656 325.605469 Z M 49.722656 49.171875 " clip-rule="nonzero"/></clipPath><clipPath id="76b78d259c"><path d="M 187.5 325.277344 C 150.714844 325.277344 116.078125 310.960938 90.085938 284.914062 C 64.039062 258.921875 49.722656 224.285156 49.722656 187.5 C 49.722656 150.714844 64.039062 116.078125 90.085938 90.085938 C 116.078125 64.039062 150.714844 49.722656 187.5 49.722656 C 224.285156 49.722656 258.921875 64.039062 284.914062 90.085938 C 310.960938 116.132812 325.277344 150.714844 325.277344 187.5 C 325.277344 224.285156 310.960938 258.921875 284.914062 284.914062 C 258.921875 310.960938 224.285156 325.277344 187.5 325.277344 Z M 187.5 57.984375 C 152.917969 57.984375 120.375 71.472656 95.925781 95.925781 C 71.472656 120.375 57.984375 152.917969 57.984375 187.5 C 57.984375 222.082031 71.472656 254.625 95.925781 279.074219 C 120.375 303.527344 152.917969 317.015625 187.5 317.015625 C 222.082031 317.015625 254.625 303.527344 279.074219 279.074219 C 303.527344 254.625 317.015625 222.082031 317.015625 187.5 C 317.015625 152.917969 303.527344 120.375 279.074219 95.925781 C 254.625 71.472656 222.082031 57.984375 187.5 57.984375 Z M 187.5 57.984375 " clip-rule="nonzero"/></clipPath><clipPath id="2483ff48ce"><path d="M 75.1875 180.40625 L 90.1875 180.40625 L 90.1875 194.65625 L 75.1875 194.65625 Z M 75.1875 180.40625 " clip-rule="nonzero"/></clipPath><clipPath id="39986dbe26"><path d="M 284.917969 180.40625 L 299.917969 180.40625 L 299.917969 194.65625 L 284.917969 194.65625 Z M 284.917969 180.40625 " clip-rule="nonzero"/></clipPath><clipPath id="ec2bb0b0cc"><path d="M 0 62.589844 L 8.066406 62.589844 L 8.066406 217.839844 L 0 217.839844 Z M 0 62.589844 " clip-rule="nonzero"/></clipPath><clipPath id="5579a03263"><path d="M 130.515625 140.335938 L 244.515625 140.335938 L 244.515625 234.835938 L 130.515625 234.835938 Z M 130.515625 140.335938 " clip-rule="nonzero"/></clipPath><clipPath id="bfad2f6f54"><path d="M 112.5 119.59375 L 262.5 119.59375 L 262.5 269.59375 L 112.5 269.59375 Z M 112.5 119.59375 " clip-rule="nonzero"/></clipPath></defs><g clip-path="url(#141cb042fd)"><g clip-path="url(#8802cf23a5)"><path fill="#1d3557" d="M 37.5 37.5 L 337.5 37.5 L 337.5 337.5 L 37.5 337.5 Z M 37.5 37.5 " fill-opacity="1" fill-rule="nonzero"/></g></g><g clip-path="url(#1f379c7f26)"><g clip-path="url(#76b78d259c)"><path fill="#f1faee" d="M 49.722656 49.722656 L 325.054688 49.722656 L 325.054688 325.054688 L 49.722656 325.054688 Z M 49.722656 49.722656 " fill-opacity="1" fill-rule="nonzero"/></g></g><g clip-path="url(#2483ff48ce)"><path fill="#f1faee" d="M 82.707031 180.449219 L 85.015625 185.125 L 90.1875 185.875 L 86.445312 189.515625 L 87.332031 194.65625 L 82.707031 192.230469 L 78.078125 194.65625 L 78.960938 189.515625 L 75.222656 185.875 L 80.390625 185.125 Z M 82.707031 180.449219 " fill-opacity="1" fill-rule="nonzero"/><path fill="#f1faee" d="M 82.671875 180.40625 L 84.984375 185.082031 L 90.152344 185.832031 L 86.410156 189.472656 L 87.292969 194.609375 L 82.671875 192.183594 L 78.046875 194.609375 L 78.929688 189.472656 L 75.1875 185.832031 L 80.355469 185.082031 Z M 82.671875 180.40625 " fill-opacity="1" fill-rule="nonzero"/><path fill="#f1faee" d="M 82.671875 180.40625 L 84.984375 185.082031 L 90.152344 185.832031 L 86.410156 189.472656 L 87.292969 194.609375 L 82.671875 192.183594 L 78.046875 194.609375 L 78.929688 189.472656 L 75.1875 185.832031 L 80.355469 185.082031 Z M 82.671875 180.40625 " fill-opacity="1" fill-rule="nonzero"/><path fill="#f1faee" d="M 82.671875 180.40625 L 84.984375 185.082031 L 90.152344 185.832031 L 86.410156 189.472656 L 87.292969 194.609375 L 82.671875 192.183594 L 78.046875 194.609375 L 78.929688 189.472656 L 75.1875 185.832031 L 80.355469 185.082031 Z M 82.671875 180.40625 " fill-opacity="1" fill-rule="nonzero"/></g><g clip-path="url(#39986dbe26)"><path fill="#f1faee" d="M 292.4375 180.449219 L 294.746094 185.125 L 299.917969 185.875 L 296.175781 189.515625 L 297.0625 194.65625 L 292.4375 192.230469 L 287.808594 194.65625 L 288.691406 189.515625 L 284.953125 185.875 L 290.121094 185.125 Z M 292.4375 180.449219 " fill-opacity="1" fill-rule="nonzero"/><path fill="#f1faee" d="M 292.398438 180.40625 L 294.714844 185.082031 L 299.882812 185.832031 L 296.140625 189.472656 L 297.023438 194.609375 L 292.398438 192.183594 L 287.773438 194.609375 L 288.65625 189.472656 L 284.917969 185.832031 L 290.085938 185.082031 Z M 292.398438 180.40625 " fill-opacity="1" fill-rule="nonzero"/><path fill="#f1faee" d="M 292.398438 180.40625 L 294.714844 185.082031 L 299.882812 185.832031 L 296.140625 189.472656 L 297.023438 194.609375 L 292.398438 192.183594 L 287.773438 194.609375 L 288.65625 189.472656 L 284.917969 185.832031 L 290.085938 185.082031 Z M 292.398438 180.40625 " fill-opacity="1" fill-rule="nonzero"/><path fill="#f1faee" d="M 292.398438 180.40625 L 294.714844 185.082031 L 299.882812 185.832031 L 296.140625 189.472656 L 297.023438 194.609375 L 292.398438 192.183594 L 287.773438 194.609375 L 288.65625 189.472656 L 284.917969 185.832031 L 290.085938 185.082031 Z M 292.398438 180.40625 " fill-opacity="1" fill-rule="nonzero"/></g><g clip-path="url(#ec2bb0b0cc)"><path fill="#f1faee" d="M -16.621094 193.148438 C -30.171875 206.691406 -48.882812 215.070312 -69.554688 215.070312 C -90.226562 215.070312 -108.941406 206.691406 -122.488281 193.148438 C -136.035156 179.597656 -144.410156 160.886719 -144.410156 140.214844 C -144.410156 119.542969 -136.035156 100.828125 -122.488281 87.28125 C -108.941406 73.738281 -90.226562 65.359375 -69.554688 65.359375 C -48.882812 65.359375 -30.171875 73.738281 -16.621094 87.28125 C -3.078125 100.828125 5.300781 119.542969 5.300781 140.214844 C 5.300781 160.886719 -3.078125 179.597656 -16.621094 193.148438 Z M -14.667969 85.324219 C -28.714844 71.28125 -48.117188 62.589844 -69.554688 62.589844 C -90.988281 62.589844 -110.398438 71.28125 -124.445312 85.324219 C -138.492188 99.375 -147.179688 118.777344 -147.179688 140.214844 C -147.179688 161.652344 -138.492188 181.054688 -124.445312 195.101562 C -110.398438 209.152344 -90.988281 217.839844 -69.554688 217.839844 C -48.117188 217.839844 -28.714844 209.152344 -14.667969 195.101562 C -0.621094 181.054688 8.070312 161.652344 8.070312 140.214844 C 8.070312 118.777344 -0.621094 99.375 -14.667969 85.324219 " fill-opacity="1" fill-rule="nonzero"/></g><path fill="#f1faee" d="M -20.148438 189.621094 C -32.503906 201.976562 -49.464844 209.726562 -68.234375 210.074219 L -68.699219 199.210938 L -68.699219 199.203125 C -68.722656 198.636719 -69.089844 198.140625 -69.628906 197.960938 L -69.632812 197.957031 C -70.140625 197.789062 -70.476562 197.316406 -70.476562 196.785156 C -70.476562 196.773438 -70.476562 196.761719 -70.476562 196.75 C -70.441406 195.535156 -70.175781 194.242188 -69.660156 193.054688 C -69.210938 192.023438 -68.578125 191.082031 -67.746094 190.359375 C -67.726562 190.339844 -67.707031 190.324219 -67.6875 190.308594 C -67.183594 189.886719 -66.371094 189.746094 -65.695312 189.738281 C -62.171875 189.609375 -58.828125 188.4375 -56.03125 186.476562 C -52.246094 183.828125 -49.46875 179.746094 -48.609375 174.871094 L -42.679688 141.253906 C -42.679688 141.25 -42.679688 141.25 -42.679688 141.25 L -42.519531 140.324219 L -41.476562 134.414062 C -41.476562 134.410156 -41.472656 134.40625 -41.472656 134.402344 L -41.441406 134.226562 C -41.441406 134.222656 -41.441406 134.222656 -41.441406 134.222656 L -41.222656 132.96875 C -41.210938 132.929688 -41.207031 132.886719 -41.199219 132.84375 C -40.363281 127.992188 -41.578125 123.234375 -44.214844 119.464844 C -46.851562 115.703125 -50.90625 112.933594 -55.75 112.058594 C -55.789062 112.046875 -55.832031 112.042969 -55.878906 112.035156 L -65.621094 110.316406 L -65.945312 110.257812 C -65.945312 110.257812 -65.949219 110.257812 -65.949219 110.257812 L -69.636719 109.609375 C -74.511719 108.75 -79.296875 109.964844 -83.078125 112.609375 C -86.863281 115.261719 -89.640625 119.34375 -90.503906 124.222656 L -97.902344 166.183594 C -97.949219 166.449219 -97.988281 166.71875 -98.023438 166.984375 C -98.054688 167.210938 -98.078125 167.433594 -98.097656 167.660156 C -98.5 172.015625 -97.277344 176.222656 -94.898438 179.625 C -92.429688 183.144531 -88.71875 185.800781 -84.277344 186.839844 C -84.277344 186.839844 -84.273438 186.84375 -84.273438 186.84375 C -84.140625 186.875 -84.042969 186.992188 -84.046875 187.132812 C -84.050781 188.472656 -83.855469 189.65625 -83.675781 190.78125 C -83.582031 191.347656 -83.488281 191.898438 -83.441406 192.4375 C -83.359375 193.265625 -84.097656 193.9375 -84.910156 193.777344 C -86.777344 193.398438 -88.609375 193.105469 -90.253906 192.957031 L -90.257812 192.957031 C -91.027344 192.886719 -91.703125 193.46875 -91.75 194.246094 L -91.75 194.25 L -92.480469 206.238281 C -102.554688 202.742188 -111.582031 197.003906 -118.960938 189.621094 C -131.605469 176.976562 -139.425781 159.507812 -139.425781 140.214844 C -139.425781 120.921875 -131.605469 103.453125 -118.960938 90.808594 C -106.320312 78.164062 -88.851562 70.34375 -69.554688 70.34375 C -50.261719 70.34375 -32.792969 78.164062 -20.148438 90.808594 C -7.503906 103.453125 0.316406 120.921875 0.316406 140.214844 C 0.316406 159.507812 -7.503906 176.976562 -20.148438 189.621094 Z M -72.324219 176.882812 C -72.304688 176.125 -72.902344 175.488281 -73.664062 175.46875 C -74.425781 175.445312 -75.0625 176.046875 -75.082031 176.808594 C -75.183594 180.210938 -74.082031 182.957031 -72.394531 185.03125 C -72.109375 185.386719 -71.800781 185.722656 -71.484375 186.035156 C -71.375 186.140625 -71.464844 186.316406 -71.613281 186.292969 L -74.40625 185.800781 C -74.425781 185.796875 -74.4375 185.792969 -74.453125 185.785156 C -74.472656 185.777344 -74.488281 185.765625 -74.507812 185.757812 C -76.054688 185.027344 -77.355469 184.140625 -78.183594 182.703125 C -79.050781 181.199219 -79.472656 179.011719 -79.246094 175.675781 C -79.195312 174.914062 -79.769531 174.253906 -80.535156 174.203125 C -81.292969 174.152344 -81.953125 174.726562 -82.003906 175.492188 C -82.273438 179.417969 -81.707031 182.109375 -80.574219 184.078125 C -80.492188 184.222656 -80.402344 184.363281 -80.316406 184.5 C -80.242188 184.613281 -80.332031 184.753906 -80.460938 184.734375 C -80.464844 184.734375 -80.464844 184.730469 -80.46875 184.730469 L -82.339844 184.402344 L -82.460938 184.382812 L -82.8125 184.320312 C -82.820312 184.316406 -82.828125 184.316406 -82.835938 184.316406 C -83.878906 182.675781 -84.472656 181.324219 -84.765625 179.929688 C -85.101562 178.359375 -85.070312 176.671875 -84.871094 174.4375 C -84.808594 173.679688 -85.371094 173.007812 -86.128906 172.945312 C -86.886719 172.878906 -87.554688 173.4375 -87.621094 174.199219 C -87.84375 176.703125 -87.867188 178.628906 -87.472656 180.5 C -87.3125 181.257812 -87.085938 181.992188 -86.777344 182.742188 C -86.726562 182.875 -86.863281 183 -86.984375 182.9375 C -87.535156 182.660156 -88.066406 182.351562 -88.574219 182.015625 C -88.59375 182.003906 -88.613281 181.980469 -88.625 181.960938 C -89.328125 180.679688 -89.6875 179.328125 -89.808594 177.917969 C -89.9375 176.339844 -89.769531 174.691406 -89.425781 173 C -89.277344 172.253906 -89.761719 171.527344 -90.507812 171.378906 C -91.253906 171.230469 -91.980469 171.710938 -92.128906 172.460938 C -92.472656 174.164062 -92.664062 175.835938 -92.605469 177.457031 C -92.601562 177.542969 -92.65625 177.617188 -92.738281 177.644531 L -92.746094 177.644531 C -92.824219 177.667969 -92.910156 177.636719 -92.957031 177.566406 C -94.570312 175.074219 -95.460938 172.113281 -95.402344 169.019531 C -95.402344 168.9375 -95.332031 168.867188 -95.25 168.871094 C -89.964844 168.984375 -84.398438 169.535156 -78.757812 170.507812 C -72.695312 171.546875 -66.574219 173.070312 -60.644531 175.058594 C -59.921875 175.296875 -59.140625 174.910156 -58.898438 174.183594 C -58.65625 173.460938 -59.046875 172.679688 -59.769531 172.441406 C -65.855469 170.402344 -72.113281 168.84375 -78.289062 167.78125 C -83.941406 166.808594 -89.542969 166.25 -94.90625 166.121094 C -94.996094 166.117188 -95.066406 166.03125 -95.050781 165.945312 L -94.449219 162.542969 C -94.4375 162.46875 -94.375 162.417969 -94.296875 162.417969 C -88.917969 162.519531 -83.238281 163.074219 -77.480469 164.066406 C -71.476562 165.101562 -65.414062 166.613281 -59.535156 168.582031 C -58.8125 168.820312 -58.027344 168.433594 -57.785156 167.707031 C -57.546875 166.984375 -57.9375 166.203125 -58.660156 165.960938 C -64.691406 163.941406 -70.894531 162.394531 -77.015625 161.339844 C -82.71875 160.355469 -88.367188 159.796875 -93.769531 159.671875 C -93.859375 159.667969 -93.929688 159.585938 -93.914062 159.496094 L -93.378906 156.457031 C -93.363281 156.382812 -93.300781 156.332031 -93.226562 156.332031 C -87.78125 156.398438 -82.023438 156.933594 -76.183594 157.921875 C -70.058594 158.957031 -63.859375 160.492188 -57.855469 162.503906 C -57.132812 162.742188 -56.347656 162.355469 -56.109375 161.632812 C -55.867188 160.910156 -56.257812 160.125 -56.980469 159.886719 C -63.132812 157.824219 -69.476562 156.253906 -75.726562 155.195312 C -81.511719 154.21875 -87.238281 153.675781 -92.691406 153.582031 C -92.785156 153.582031 -92.855469 153.496094 -92.839844 153.40625 L -92.320312 150.460938 C -92.308594 150.386719 -92.242188 150.332031 -92.167969 150.332031 C -86.722656 150.40625 -80.96875 150.945312 -75.132812 151.933594 C -68.984375 152.972656 -62.761719 154.515625 -56.730469 156.535156 C -56.007812 156.777344 -55.226562 156.386719 -54.984375 155.664062 C -54.742188 154.941406 -55.132812 154.15625 -55.855469 153.917969 C -62.035156 151.847656 -68.398438 150.273438 -74.679688 149.210938 C -80.457031 148.230469 -86.179688 147.683594 -91.632812 147.585938 C -91.726562 147.585938 -91.796875 147.5 -91.78125 147.410156 L -91.183594 144.011719 C -91.171875 143.941406 -91.105469 143.886719 -91.03125 143.886719 C -85.59375 143.953125 -79.847656 144.484375 -74.015625 145.46875 C -67.867188 146.503906 -61.648438 148.039062 -55.617188 150.058594 C -54.898438 150.300781 -54.117188 149.910156 -53.871094 149.1875 C -53.632812 148.464844 -54.019531 147.683594 -54.746094 147.441406 C -60.921875 145.371094 -67.285156 143.800781 -73.5625 142.742188 C -79.335938 141.769531 -85.054688 141.230469 -90.496094 141.136719 C -90.589844 141.136719 -90.660156 141.050781 -90.644531 140.960938 L -90.195312 138.410156 C -90.183594 138.335938 -90.117188 138.28125 -90.042969 138.28125 C -84.554688 138.328125 -78.746094 138.855469 -72.851562 139.839844 C -66.660156 140.875 -60.386719 142.421875 -54.3125 144.457031 C -53.589844 144.699219 -52.808594 144.308594 -52.566406 143.585938 C -52.324219 142.863281 -52.710938 142.082031 -53.433594 141.839844 C -59.660156 139.753906 -66.074219 138.175781 -72.394531 137.117188 C -78.238281 136.140625 -84.015625 135.605469 -89.507812 135.53125 C -89.601562 135.53125 -89.671875 135.445312 -89.65625 135.351562 L -89.136719 132.410156 C -89.125 132.339844 -89.0625 132.285156 -88.988281 132.285156 C -83.488281 132.339844 -77.667969 132.867188 -71.765625 133.859375 C -65.5625 134.902344 -59.277344 136.449219 -53.1875 138.488281 C -52.464844 138.730469 -51.683594 138.339844 -51.441406 137.617188 C -51.199219 136.898438 -51.585938 136.117188 -52.3125 135.871094 C -58.550781 133.78125 -64.976562 132.195312 -71.3125 131.132812 C -77.160156 130.152344 -82.945312 129.617188 -88.453125 129.53125 C -88.542969 129.53125 -88.613281 129.449219 -88.597656 129.355469 L -88 125.964844 C -87.988281 125.894531 -87.921875 125.839844 -87.851562 125.839844 C -82.378906 125.882812 -76.589844 126.402344 -70.710938 127.382812 C -64.484375 128.417969 -58.183594 129.96875 -52.078125 132.011719 C -51.355469 132.257812 -50.574219 131.867188 -50.332031 131.144531 C -50.089844 130.421875 -50.480469 129.640625 -51.203125 129.398438 C -57.457031 127.300781 -63.90625 125.714844 -70.257812 124.65625 C -76.039062 123.695312 -81.757812 123.164062 -87.203125 123.089844 C -87.300781 123.085938 -87.375 122.992188 -87.34375 122.894531 C -86.898438 121.421875 -86.234375 120.0625 -85.40625 118.832031 C -85.308594 118.6875 -85.085938 118.796875 -85.136719 118.960938 C -85.140625 118.96875 -85.140625 118.96875 -85.140625 118.972656 C -85.367188 119.699219 -84.960938 120.476562 -84.230469 120.703125 C -83.503906 120.929688 -82.726562 120.523438 -82.5 119.792969 C -81.878906 117.792969 -81 116.132812 -79.988281 114.902344 C -79.167969 113.902344 -78.261719 113.195312 -77.351562 112.839844 C -77.335938 112.828125 -77.324219 112.816406 -77.308594 112.804688 C -77.089844 112.734375 -76.867188 112.667969 -76.644531 112.609375 C -76.714844 112.644531 -76.789062 112.667969 -76.867188 112.6875 C -77.019531 112.726562 -77.167969 112.773438 -77.320312 112.828125 C -77.339844 112.839844 -77.359375 112.851562 -77.375 112.863281 C -78.8125 114.292969 -79.820312 116.328125 -81.042969 119.203125 C -81.34375 119.90625 -81.015625 120.71875 -80.3125 121.015625 C -79.609375 121.316406 -78.800781 120.988281 -78.5 120.285156 C -77.140625 117.085938 -76.136719 115.125 -74.542969 114.113281 C -73.96875 113.746094 -73.289062 113.480469 -72.460938 113.292969 C -72.3125 113.261719 -72.210938 113.445312 -72.324219 113.550781 C -73.746094 114.894531 -74.832031 116.855469 -76.222656 119.738281 C -76.554688 120.425781 -76.265625 121.25 -75.578125 121.582031 C -74.894531 121.914062 -74.066406 121.625 -73.734375 120.9375 C -72.136719 117.625 -71.050781 115.742188 -69.453125 114.824219 C -68.777344 114.4375 -67.960938 114.183594 -66.925781 114.035156 C -66.777344 114.015625 -66.691406 114.199219 -66.804688 114.300781 C -68.246094 115.585938 -69.382812 117.546875 -70.914062 120.554688 C -71.257812 121.234375 -70.988281 122.070312 -70.308594 122.417969 C -69.625 122.761719 -68.792969 122.492188 -68.445312 121.808594 C -66.664062 118.304688 -65.5625 116.476562 -63.933594 115.664062 C -62.945312 115.175781 -61.65625 114.976562 -59.820312 114.9375 C -59.652344 114.933594 -59.601562 115.160156 -59.757812 115.226562 C -61.898438 116.136719 -63.65625 118.011719 -65.320312 121.703125 C -65.632812 122.398438 -65.320312 123.214844 -64.628906 123.53125 C -63.933594 123.84375 -63.113281 123.53125 -62.800781 122.839844 C -61 118.835938 -58.964844 117.589844 -56.105469 117.296875 C -51.308594 116.964844 -46.589844 120.273438 -45.335938 122.953125 C -43.953125 125.699219 -43.378906 128.882812 -43.882812 132.125 C -43.976562 132.085938 -44.066406 132.046875 -44.160156 132.007812 C -44.871094 131.722656 -45.507812 131.464844 -46.078125 131.242188 C -46.789062 130.96875 -47.589844 131.324219 -47.863281 132.035156 C -48.140625 132.746094 -47.789062 133.542969 -47.078125 133.820312 C -46.378906 134.089844 -45.753906 134.335938 -45.199219 134.5625 C -44.976562 134.652344 -44.699219 134.769531 -44.371094 134.90625 L -44.988281 138.402344 C -45.003906 138.5 -45.105469 138.554688 -45.195312 138.515625 C -45.207031 138.511719 -45.222656 138.507812 -45.238281 138.5 C -45.945312 138.210938 -46.585938 137.953125 -47.164062 137.730469 C -47.875 137.453125 -48.675781 137.808594 -48.949219 138.519531 C -49.222656 139.230469 -48.871094 140.027344 -48.160156 140.304688 C -47.460938 140.574219 -46.828125 140.828125 -46.273438 141.050781 C -46.089844 141.128906 -45.875 141.21875 -45.625 141.324219 C -45.558594 141.347656 -45.519531 141.417969 -45.53125 141.488281 L -46.046875 144.398438 C -46.0625 144.492188 -46.164062 144.550781 -46.253906 144.511719 C -46.300781 144.492188 -46.347656 144.472656 -46.398438 144.453125 C -47.101562 144.164062 -47.742188 143.910156 -48.3125 143.6875 C -49.023438 143.414062 -49.824219 143.765625 -50.101562 144.476562 C -50.375 145.1875 -50.019531 145.988281 -49.308594 146.261719 C -48.613281 146.53125 -47.988281 146.777344 -47.4375 147.003906 C -47.226562 147.089844 -46.976562 147.195312 -46.679688 147.320312 C -46.617188 147.347656 -46.578125 147.414062 -46.589844 147.488281 L -47.054688 150.125 C -47.070312 150.21875 -47.171875 150.273438 -47.261719 150.238281 C -47.402344 150.179688 -47.550781 150.117188 -47.703125 150.054688 C -48.410156 149.765625 -49.046875 149.511719 -49.621094 149.289062 C -50.332031 149.015625 -51.132812 149.367188 -51.40625 150.078125 C -51.683594 150.789062 -51.328125 151.589844 -50.617188 151.863281 C -49.917969 152.132812 -49.296875 152.382812 -48.742188 152.609375 C -48.46875 152.71875 -48.117188 152.867188 -47.691406 153.050781 C -47.625 153.074219 -47.589844 153.144531 -47.601562 153.214844 L -48.195312 156.585938 C -48.210938 156.683594 -48.3125 156.738281 -48.402344 156.699219 C -48.523438 156.648438 -48.652344 156.597656 -48.78125 156.542969 C -49.488281 156.253906 -50.128906 156 -50.707031 155.773438 C -51.417969 155.5 -52.214844 155.855469 -52.492188 156.566406 C -52.765625 157.277344 -52.410156 158.074219 -51.703125 158.347656 C -51.003906 158.621094 -50.375 158.871094 -49.820312 159.097656 C -49.558594 159.203125 -49.226562 159.34375 -48.828125 159.511719 C -48.765625 159.539062 -48.726562 159.609375 -48.742188 159.675781 L -49.214844 162.375 C -49.25 162.574219 -49.464844 162.695312 -49.652344 162.617188 C -49.746094 162.578125 -49.839844 162.539062 -49.9375 162.5 C -50.644531 162.210938 -51.28125 161.957031 -51.855469 161.734375 C -52.566406 161.457031 -53.367188 161.8125 -53.640625 162.523438 C -53.914062 163.230469 -53.5625 164.03125 -52.855469 164.308594 C -52.15625 164.574219 -51.527344 164.828125 -50.976562 165.050781 C -50.691406 165.167969 -50.328125 165.320312 -49.890625 165.507812 C -49.824219 165.535156 -49.785156 165.605469 -49.796875 165.675781 L -50.367188 168.894531 C -50.382812 168.992188 -50.480469 169.046875 -50.570312 169.007812 C -50.878906 168.878906 -51.226562 168.738281 -51.617188 168.578125 C -52.320312 168.289062 -52.960938 168.03125 -53.535156 167.8125 C -54.246094 167.535156 -55.046875 167.890625 -55.320312 168.601562 C -55.59375 169.3125 -55.242188 170.109375 -54.53125 170.382812 C -53.835938 170.65625 -53.210938 170.902344 -52.65625 171.128906 C -52.257812 171.292969 -51.707031 171.527344 -51 171.828125 C -50.9375 171.855469 -50.902344 171.921875 -50.914062 171.992188 L -51.332031 174.394531 C -51.390625 174.71875 -51.457031 175.039062 -51.535156 175.355469 C -51.558594 175.445312 -51.65625 175.492188 -51.742188 175.457031 C -52.023438 175.339844 -52.339844 175.210938 -52.691406 175.066406 C -53.402344 174.777344 -54.042969 174.519531 -54.621094 174.296875 C -55.332031 174.023438 -56.128906 174.375 -56.40625 175.085938 C -56.679688 175.796875 -56.328125 176.597656 -55.617188 176.871094 C -54.914062 177.144531 -54.285156 177.390625 -53.730469 177.621094 C -53.445312 177.734375 -53.085938 177.886719 -52.652344 178.070312 C -52.574219 178.105469 -52.535156 178.195312 -52.574219 178.273438 C -53.554688 180.332031 -54.96875 182.113281 -56.6875 183.515625 C -58.761719 185.492188 -66.199219 187.207031 -70.238281 183.304688 C -70.25 183.296875 -70.257812 183.289062 -70.269531 183.277344 C -71.5625 181.675781 -72.402344 179.546875 -72.324219 176.882812 Z M -80.949219 190.335938 C -81.011719 189.945312 -81.078125 189.550781 -81.132812 189.140625 C -81.25 188.285156 -80.503906 187.558594 -79.652344 187.683594 C -79.640625 187.6875 -79.628906 187.6875 -79.617188 187.691406 L -76.582031 188.226562 L -72.546875 188.941406 C -71.667969 189.09375 -71.199219 190.078125 -71.636719 190.851562 C -71.84375 191.214844 -72.027344 191.585938 -72.191406 191.964844 C -72.648438 193.023438 -72.957031 194.15625 -73.113281 195.273438 C -73.226562 196.0625 -74.007812 196.570312 -74.773438 196.34375 C -75.148438 196.234375 -75.53125 196.121094 -75.921875 196.007812 C -77.078125 195.675781 -78.339844 195.328125 -79.652344 194.988281 C -80.246094 194.835938 -80.652344 194.285156 -80.628906 193.675781 C -80.585938 192.558594 -80.761719 191.480469 -80.949219 190.335938 Z M -72.433594 210.027344 C -72.453125 210.027344 -72.472656 210.027344 -72.488281 210.027344 C -75.15625 209.917969 -77.769531 209.664062 -80.328125 209.265625 C -83.183594 208.824219 -85.980469 208.210938 -88.707031 207.433594 C -88.75 207.421875 -88.792969 207.410156 -88.828125 207.394531 C -89.378906 207.179688 -89.738281 206.628906 -89.699219 206.03125 L -89.175781 197.359375 C -89.125 196.546875 -88.382812 195.953125 -87.578125 196.085938 C -86.085938 196.332031 -84.515625 196.65625 -82.960938 197.019531 C -79.707031 197.773438 -76.507812 198.695312 -74.167969 199.410156 C -74.074219 199.4375 -73.984375 199.464844 -73.894531 199.492188 C -73.875 199.5 -73.851562 199.507812 -73.832031 199.511719 C -73.777344 199.53125 -73.722656 199.546875 -73.671875 199.5625 C -73.625 199.578125 -73.582031 199.589844 -73.535156 199.601562 C -73.492188 199.617188 -73.449219 199.632812 -73.40625 199.644531 C -73.363281 199.65625 -73.320312 199.671875 -73.277344 199.683594 C -73.195312 199.707031 -73.109375 199.734375 -73.027344 199.761719 C -72.78125 199.839844 -72.546875 199.914062 -72.328125 199.980469 C -71.777344 200.15625 -71.398438 200.65625 -71.375 201.234375 L -71.0625 208.59375 C -71.027344 209.375 -71.65625 210.027344 -72.433594 210.027344 Z M -18.191406 88.851562 C -31.335938 75.707031 -49.496094 67.574219 -69.554688 67.574219 C -89.613281 67.574219 -107.773438 75.707031 -120.917969 88.851562 C -134.0625 101.996094 -142.195312 120.15625 -142.195312 140.214844 C -142.195312 160.273438 -134.0625 178.433594 -120.917969 191.578125 C -108.507812 203.988281 -91.628906 211.929688 -72.902344 212.777344 C -72.863281 212.777344 -72.820312 212.78125 -72.78125 212.785156 C -72.414062 212.796875 -72.046875 212.8125 -71.679688 212.824219 C -71.328125 212.835938 -70.972656 212.84375 -70.617188 212.847656 C -70.53125 212.847656 -70.445312 212.847656 -70.359375 212.847656 C -70.246094 212.851562 -70.132812 212.851562 -70.023438 212.855469 C -69.867188 212.855469 -69.714844 212.855469 -69.558594 212.855469 L -69.550781 212.855469 C -49.492188 212.855469 -31.335938 204.722656 -18.191406 191.578125 C -5.046875 178.433594 3.082031 160.273438 3.082031 140.214844 C 3.082031 120.15625 -5.046875 101.996094 -18.191406 88.851562 " fill-opacity="1" fill-rule="nonzero"/><g clip-path="url(#5579a03263)"><path fill="#ffffff" d="M 139.707031 155.855469 L 141.914062 155.855469 L 141.914062 148.105469 C 141.914062 147.292969 142.578125 146.628906 143.386719 146.628906 L 159.566406 146.628906 C 160.375 146.628906 161.035156 147.292969 161.035156 148.105469 L 161.035156 155.855469 L 166.632812 155.855469 C 168.539062 149.734375 170.71875 143.21875 177.28125 140.734375 C 183.578125 140.734375 189.875 140.734375 196.167969 140.734375 C 203.4375 140.339844 206.605469 150.269531 208.414062 155.855469 L 235.320312 155.855469 C 240.378906 155.855469 244.515625 160.007812 244.515625 165.082031 L 244.515625 225.609375 C 244.515625 230.683594 240.378906 234.835938 235.320312 234.835938 L 139.707031 234.835938 C 134.652344 234.835938 130.515625 230.683594 130.515625 225.609375 L 130.515625 165.082031 C 130.515625 160.007812 134.652344 155.855469 139.707031 155.855469 Z M 156.625 149.210938 L 156.625 155.855469 L 158.09375 155.855469 L 158.09375 149.210938 Z M 155.152344 155.855469 L 155.152344 149.210938 L 153.683594 149.210938 L 153.683594 155.855469 Z M 152.210938 155.855469 L 152.210938 149.210938 L 150.742188 149.210938 L 150.742188 155.855469 Z M 149.269531 155.855469 L 149.269531 149.210938 L 147.796875 149.210938 L 147.796875 155.855469 Z M 146.328125 155.855469 L 146.328125 149.210938 L 144.855469 149.210938 L 144.855469 155.855469 Z M 177.953125 144.425781 C 190.210938 144.425781 196.339844 144.425781 196.339844 144.425781 C 199.28125 144.425781 201.9375 147.789062 204.429688 155.496094 C 204.429688 155.496094 193.152344 155.496094 170.597656 155.496094 C 172.546875 149.234375 175 145.542969 177.953125 144.425781 Z M 139.707031 159.546875 L 235.320312 159.546875 C 238.355469 159.546875 240.835938 162.035156 240.835938 165.082031 L 240.835938 225.609375 C 240.835938 228.65625 238.355469 231.144531 235.320312 231.144531 L 139.707031 231.144531 C 136.675781 231.144531 134.191406 228.65625 134.191406 225.609375 L 134.191406 165.082031 C 134.191406 162.035156 136.675781 159.546875 139.707031 159.546875 Z M 139.707031 159.546875 " fill-opacity="1" fill-rule="evenodd"/></g><path fill="#ffffff" d="M 213.992188 163.605469 L 228.703125 163.605469 L 228.703125 170.988281 L 213.992188 170.988281 Z M 215.464844 165.082031 L 227.230469 165.082031 L 227.230469 169.511719 L 215.464844 169.511719 Z M 215.464844 165.082031 " fill-opacity="1" fill-rule="evenodd"/><path fill="#ffffff" d="M 202.117188 175.414062 L 216.933594 175.414062 L 216.933594 176.890625 L 204.078125 176.890625 C 203.449219 176.371094 202.792969 175.875 202.117188 175.414062 Z M 202.117188 175.414062 " fill-opacity="1" fill-rule="evenodd"/><path fill="#ffffff" d="M 133.824219 175.414062 L 173.28125 175.414062 C 172.601562 175.875 171.945312 176.371094 171.316406 176.890625 L 133.824219 176.890625 Z M 133.824219 175.414062 " fill-opacity="1" fill-rule="evenodd"/><path fill="#ffffff" d="M 224.289062 175.414062 L 236.054688 175.414062 L 236.054688 176.890625 L 224.289062 176.890625 Z M 224.289062 175.414062 " fill-opacity="1" fill-rule="evenodd"/><path fill="#ffffff" d="M 202.554688 217.921875 L 235.6875 217.921875 L 235.6875 220.074219 L 198.929688 220.074219 C 200.199219 219.453125 201.410156 218.734375 202.554688 217.921875 Z M 202.554688 217.921875 " fill-opacity="1" fill-rule="evenodd"/><path fill="#ffffff" d="M 134.191406 217.921875 L 172.84375 217.921875 C 173.984375 218.734375 175.195312 219.453125 176.464844 220.074219 L 134.191406 220.074219 Z M 134.191406 217.921875 " fill-opacity="1" fill-rule="evenodd"/><path fill="#ffffff" d="M 187.699219 180.027344 C 196.941406 180.027344 204.429688 187.546875 204.429688 196.820312 C 204.429688 206.097656 196.941406 213.613281 187.699219 213.613281 C 178.457031 213.613281 170.964844 206.097656 170.964844 196.820312 C 170.964844 187.546875 178.457031 180.027344 187.699219 180.027344 Z M 187.699219 182.242188 C 195.722656 182.242188 202.222656 188.769531 202.222656 196.820312 C 202.222656 204.871094 195.722656 211.398438 187.699219 211.398438 C 179.675781 211.398438 173.171875 204.871094 173.171875 196.820312 C 173.171875 188.769531 179.675781 182.242188 187.699219 182.242188 Z M 187.699219 182.242188 " fill-opacity="1" fill-rule="evenodd"/><path fill="#ffffff" d="M 187.699219 170.988281 C 201.914062 170.988281 213.441406 182.554688 213.441406 196.820312 C 213.441406 211.089844 201.914062 222.65625 187.699219 222.65625 C 173.480469 222.65625 161.957031 211.089844 161.957031 196.820312 C 161.957031 182.554688 173.480469 170.988281 187.699219 170.988281 Z M 187.699219 174.394531 C 200.039062 174.394531 210.046875 184.433594 210.046875 196.820312 C 210.046875 209.207031 200.039062 219.25 187.699219 219.25 C 175.355469 219.25 165.351562 209.207031 165.351562 196.820312 C 165.351562 184.433594 175.355469 174.394531 187.699219 174.394531 Z M 187.699219 174.394531 " fill-opacity="1" fill-rule="evenodd"/><path fill="#ffffff" d="M 193.765625 188.382812 C 196.074219 188.382812 197.945312 190.261719 197.945312 192.578125 C 197.945312 194.894531 196.074219 196.769531 193.765625 196.769531 C 191.457031 196.769531 189.589844 194.894531 189.589844 192.578125 C 189.589844 190.261719 191.457031 188.382812 193.765625 188.382812 Z M 193.765625 188.9375 C 195.769531 188.9375 197.394531 190.566406 197.394531 192.578125 C 197.394531 194.585938 195.769531 196.21875 193.765625 196.21875 C 191.761719 196.21875 190.140625 194.585938 190.140625 192.578125 C 190.140625 190.566406 191.761719 188.9375 193.765625 188.9375 Z M 193.765625 188.9375 " fill-opacity="1" fill-rule="evenodd"/><g clip-path="url(#bfad2f6f54)"><path fill="#ffffff" d="M 187.5 269.59375 C 146.066406 269.59375 112.5 235.796875 112.5 194.59375 C 112.5 153.390625 146.066406 119.59375 187.5 119.59375 C 228.933594 119.59375 262.5 153.160156 262.5 194.59375 C 262.5 236.03125 228.703125 269.59375 187.5 269.59375 Z M 187.5 124.222656 C 148.609375 124.222656 117.128906 155.707031 117.128906 194.59375 C 117.128906 233.484375 148.609375 264.964844 187.5 264.964844 C 226.390625 264.964844 257.871094 233.484375 257.871094 194.59375 C 257.871094 155.707031 226.15625 124.222656 187.5 124.222656 Z M 187.5 124.222656 " fill-opacity="1" fill-rule="nonzero"/></g><g fill="#f1faee" fill-opacity="1"><g transform="translate(104.026393, 260.326479)"><g><path d="M 0.890625 0.875 L 10.671875 -9.03125 L 15.640625 -4.125 C 16.117188 -3.644531 16.488281 -3.125 16.75 -2.5625 C 17.007812 -2 17.148438 -1.4375 17.171875 -0.875 C 17.191406 -0.320312 17.09375 0.222656 16.875 0.765625 C 16.664062 1.316406 16.335938 1.816406 15.890625 2.265625 C 15.453125 2.710938 14.96875 3.039062 14.4375 3.25 C 13.914062 3.457031 13.367188 3.550781 12.796875 3.53125 C 12.222656 3.507812 11.65625 3.375 11.09375 3.125 C 10.539062 2.882812 10.023438 2.523438 9.546875 2.046875 L 6.640625 -0.828125 L 2.953125 2.90625 Z M 13.671875 -2.578125 L 10.984375 -5.234375 L 8.3125 -2.53125 L 11 0.125 C 11.4375 0.550781 11.910156 0.773438 12.421875 0.796875 C 12.941406 0.828125 13.398438 0.640625 13.796875 0.234375 C 14.203125 -0.171875 14.390625 -0.632812 14.359375 -1.15625 C 14.335938 -1.675781 14.109375 -2.148438 13.671875 -2.578125 Z M 13.671875 -2.578125 "/></g></g></g><g fill="#f1faee" fill-opacity="1"><g transform="translate(115.82646, 271.727223)"><g><path d="M 1.015625 0.734375 L 9.1875 -10.53125 L 11.53125 -8.828125 L 8.25 -4.296875 L 13.421875 -0.546875 L 16.703125 -5.078125 L 19.03125 -3.390625 L 10.859375 7.875 L 8.53125 6.1875 L 11.875 1.578125 L 6.703125 -2.171875 L 3.359375 2.4375 Z M 1.015625 0.734375 "/></g></g></g><g fill="#f1faee" fill-opacity="1"><g transform="translate(130.209102, 281.933366)"><g><path d="M 16.9375 0.6875 C 16.488281 1.582031 15.894531 2.335938 15.15625 2.953125 C 14.414062 3.566406 13.609375 4.015625 12.734375 4.296875 C 11.867188 4.578125 10.945312 4.679688 9.96875 4.609375 C 9 4.546875 8.050781 4.28125 7.125 3.8125 C 6.21875 3.363281 5.441406 2.769531 4.796875 2.03125 C 4.160156 1.289062 3.691406 0.488281 3.390625 -0.375 C 3.085938 -1.25 2.960938 -2.164062 3.015625 -3.125 C 3.066406 -4.082031 3.316406 -5.007812 3.765625 -5.90625 C 4.203125 -6.789062 4.789062 -7.539062 5.53125 -8.15625 C 6.269531 -8.769531 7.078125 -9.21875 7.953125 -9.5 C 8.828125 -9.789062 9.75 -9.894531 10.71875 -9.8125 C 11.695312 -9.738281 12.640625 -9.476562 13.546875 -9.03125 C 14.472656 -8.5625 15.253906 -7.960938 15.890625 -7.234375 C 16.535156 -6.503906 17.003906 -5.703125 17.296875 -4.828125 C 17.597656 -3.953125 17.722656 -3.035156 17.671875 -2.078125 C 17.617188 -1.117188 17.375 -0.195312 16.9375 0.6875 Z M 14.28125 -0.640625 C 14.5625 -1.210938 14.726562 -1.796875 14.78125 -2.390625 C 14.832031 -2.992188 14.769531 -3.5625 14.59375 -4.09375 C 14.425781 -4.625 14.148438 -5.113281 13.765625 -5.5625 C 13.390625 -6.019531 12.921875 -6.390625 12.359375 -6.671875 C 11.804688 -6.941406 11.238281 -7.09375 10.65625 -7.125 C 10.070312 -7.164062 9.515625 -7.09375 8.984375 -6.90625 C 8.453125 -6.71875 7.960938 -6.425781 7.515625 -6.03125 C 7.066406 -5.632812 6.703125 -5.148438 6.421875 -4.578125 C 6.128906 -3.992188 5.957031 -3.40625 5.90625 -2.8125 C 5.851562 -2.226562 5.914062 -1.664062 6.09375 -1.125 C 6.269531 -0.59375 6.539062 -0.101562 6.90625 0.34375 C 7.28125 0.800781 7.742188 1.164062 8.296875 1.4375 C 8.859375 1.71875 9.4375 1.875 10.03125 1.90625 C 10.625 1.945312 11.179688 1.867188 11.703125 1.671875 C 12.234375 1.484375 12.722656 1.195312 13.171875 0.8125 C 13.617188 0.425781 13.988281 -0.0546875 14.28125 -0.640625 Z M 14.28125 -0.640625 "/></g></g></g><g fill="#f1faee" fill-opacity="1"><g transform="translate(147.392664, 290.143508)"><g><path d="M 3.796875 -10.734375 L 4.578125 -13.15625 L 16.25 -9.4375 L 15.46875 -7.015625 L 11.015625 -8.4375 L 7.5625 2.40625 L 4.8125 1.53125 L 8.265625 -9.3125 Z M 3.796875 -10.734375 "/></g></g></g><g fill="#f1faee" fill-opacity="1"><g transform="translate(162.534254, 294.867028)"><g><path d="M 16.328125 -4.53125 C 16.179688 -3.539062 15.847656 -2.640625 15.328125 -1.828125 C 14.816406 -1.015625 14.1875 -0.335938 13.4375 0.203125 C 12.695312 0.742188 11.851562 1.125 10.90625 1.34375 C 9.957031 1.570312 8.972656 1.609375 7.953125 1.453125 C 6.941406 1.296875 6.019531 0.96875 5.1875 0.46875 C 4.351562 -0.03125 3.660156 -0.648438 3.109375 -1.390625 C 2.566406 -2.140625 2.171875 -2.976562 1.921875 -3.90625 C 1.671875 -4.832031 1.617188 -5.789062 1.765625 -6.78125 C 1.921875 -7.757812 2.257812 -8.65625 2.78125 -9.46875 C 3.300781 -10.28125 3.929688 -10.953125 4.671875 -11.484375 C 5.421875 -12.015625 6.265625 -12.394531 7.203125 -12.625 C 8.148438 -12.851562 9.128906 -12.890625 10.140625 -12.734375 C 11.160156 -12.578125 12.085938 -12.242188 12.921875 -11.734375 C 13.765625 -11.234375 14.457031 -10.613281 15 -9.875 C 15.550781 -9.144531 15.945312 -8.316406 16.1875 -7.390625 C 16.4375 -6.460938 16.484375 -5.507812 16.328125 -4.53125 Z M 13.40625 -4.984375 C 13.507812 -5.617188 13.488281 -6.222656 13.34375 -6.796875 C 13.207031 -7.378906 12.976562 -7.898438 12.65625 -8.359375 C 12.332031 -8.816406 11.921875 -9.203125 11.421875 -9.515625 C 10.921875 -9.828125 10.363281 -10.03125 9.75 -10.125 C 9.132812 -10.21875 8.539062 -10.191406 7.96875 -10.046875 C 7.40625 -9.898438 6.898438 -9.65625 6.453125 -9.3125 C 6.003906 -8.976562 5.625 -8.554688 5.3125 -8.046875 C 5.007812 -7.535156 4.804688 -6.960938 4.703125 -6.328125 C 4.609375 -5.679688 4.628906 -5.066406 4.765625 -4.484375 C 4.910156 -3.910156 5.144531 -3.394531 5.46875 -2.9375 C 5.789062 -2.476562 6.195312 -2.085938 6.6875 -1.765625 C 7.1875 -1.453125 7.742188 -1.25 8.359375 -1.15625 C 8.972656 -1.0625 9.566406 -1.085938 10.140625 -1.234375 C 10.710938 -1.390625 11.222656 -1.632812 11.671875 -1.96875 C 12.117188 -2.3125 12.492188 -2.738281 12.796875 -3.25 C 13.109375 -3.757812 13.3125 -4.335938 13.40625 -4.984375 Z M 13.40625 -4.984375 "/></g></g></g><g fill="#f1faee" fill-opacity="1"><g transform="translate(181.481241, 297.528347)"><g><path d="M 14.96875 -7.15625 C 14.988281 -6.132812 14.828125 -5.179688 14.484375 -4.296875 C 14.140625 -3.410156 13.664062 -2.648438 13.0625 -2.015625 C 12.457031 -1.378906 11.726562 -0.867188 10.875 -0.484375 C 10.019531 -0.109375 9.09375 0.0820312 8.09375 0.09375 C 7.0625 0.113281 6.09375 -0.0507812 5.1875 -0.40625 C 4.28125 -0.769531 3.492188 -1.269531 2.828125 -1.90625 C 2.160156 -2.539062 1.628906 -3.289062 1.234375 -4.15625 C 0.835938 -5.03125 0.628906 -5.972656 0.609375 -6.984375 C 0.597656 -7.984375 0.769531 -8.921875 1.125 -9.796875 C 1.488281 -10.679688 1.992188 -11.453125 2.640625 -12.109375 C 3.285156 -12.765625 4.054688 -13.28125 4.953125 -13.65625 C 5.859375 -14.039062 6.820312 -14.242188 7.84375 -14.265625 C 8.988281 -14.273438 10.078125 -14.054688 11.109375 -13.609375 C 12.140625 -13.160156 12.992188 -12.535156 13.671875 -11.734375 L 11.6875 -9.859375 C 11.1875 -10.441406 10.613281 -10.882812 9.96875 -11.1875 C 9.320312 -11.488281 8.628906 -11.632812 7.890625 -11.625 C 7.265625 -11.613281 6.6875 -11.484375 6.15625 -11.234375 C 5.625 -10.992188 5.164062 -10.671875 4.78125 -10.265625 C 4.394531 -9.859375 4.09375 -9.378906 3.875 -8.828125 C 3.664062 -8.273438 3.566406 -7.675781 3.578125 -7.03125 C 3.585938 -6.375 3.707031 -5.765625 3.9375 -5.203125 C 4.175781 -4.648438 4.492188 -4.175781 4.890625 -3.78125 C 5.296875 -3.382812 5.773438 -3.070312 6.328125 -2.84375 C 6.890625 -2.625 7.484375 -2.519531 8.109375 -2.53125 C 9.085938 -2.539062 9.925781 -2.820312 10.625 -3.375 C 11.320312 -3.925781 11.753906 -4.632812 11.921875 -5.5 L 7.796875 -5.4375 L 7.765625 -7.9375 L 14.96875 -8.03125 Z M 14.96875 -7.15625 "/></g></g></g><g fill="#f1faee" fill-opacity="1"><g transform="translate(200.14512, 296.93261)"><g><path d="M 1.234375 -0.21875 L -1.140625 -13.9375 L 5.5625 -15.09375 C 6.25 -15.207031 6.898438 -15.207031 7.515625 -15.09375 C 8.140625 -14.988281 8.695312 -14.785156 9.1875 -14.484375 C 9.675781 -14.191406 10.082031 -13.800781 10.40625 -13.3125 C 10.726562 -12.832031 10.941406 -12.28125 11.046875 -11.65625 C 11.203125 -10.789062 11.085938 -9.972656 10.703125 -9.203125 C 10.328125 -8.441406 9.769531 -7.832031 9.03125 -7.375 L 13.046875 -2.25 L 9.859375 -1.703125 L 6.265625 -6.484375 L 3.171875 -5.953125 L 4.078125 -0.703125 Z M 5.734375 -12.59375 L 2.125 -11.96875 L 2.765625 -8.296875 L 6.375 -8.921875 C 7.007812 -9.023438 7.488281 -9.28125 7.8125 -9.6875 C 8.144531 -10.09375 8.265625 -10.566406 8.171875 -11.109375 C 8.078125 -11.660156 7.804688 -12.070312 7.359375 -12.34375 C 6.910156 -12.613281 6.367188 -12.695312 5.734375 -12.59375 Z M 5.734375 -12.59375 "/></g></g></g><g fill="#f1faee" fill-opacity="1"><g transform="translate(216.236778, 293.976713)"><g><path d="M -0.078125 0.03125 L 0.96875 -14.984375 L 4.140625 -16.046875 L 13.890625 -4.625 L 10.921875 -3.640625 L 8.4375 -6.65625 L 2.984375 -4.84375 L 2.765625 -0.921875 Z M 3.09375 -7.3125 L 6.875 -8.578125 L 3.390625 -12.828125 Z M 3.09375 -7.3125 "/></g></g></g><g fill="#f1faee" fill-opacity="1"><g transform="translate(232.674975, 288.24034)"><g><path d="M 1.109375 -0.5625 L -5.21875 -12.96875 L 1 -16.140625 C 1.601562 -16.453125 2.210938 -16.640625 2.828125 -16.703125 C 3.441406 -16.765625 4.019531 -16.71875 4.5625 -16.5625 C 5.113281 -16.40625 5.613281 -16.140625 6.0625 -15.765625 C 6.507812 -15.398438 6.875 -14.929688 7.15625 -14.359375 C 7.445312 -13.804688 7.609375 -13.242188 7.640625 -12.671875 C 7.671875 -12.109375 7.582031 -11.5625 7.375 -11.03125 C 7.175781 -10.5 6.867188 -10.003906 6.453125 -9.546875 C 6.046875 -9.097656 5.539062 -8.71875 4.9375 -8.40625 L 1.296875 -6.546875 L 3.6875 -1.875 Z M 1.859375 -13.78125 L -1.515625 -12.0625 L 0.21875 -8.6875 L 3.59375 -10.40625 C 4.132812 -10.6875 4.492188 -11.0625 4.671875 -11.53125 C 4.859375 -12.007812 4.820312 -12.503906 4.5625 -13.015625 C 4.300781 -13.523438 3.921875 -13.847656 3.421875 -13.984375 C 2.921875 -14.128906 2.398438 -14.0625 1.859375 -13.78125 Z M 1.859375 -13.78125 "/></g></g></g><g fill="#f1faee" fill-opacity="1"><g transform="translate(247.209196, 280.628503)"><g><path d="M 1.015625 -0.734375 L -7.109375 -12.046875 L -4.765625 -13.734375 L -1.5 -9.1875 L 3.703125 -12.921875 L 0.4375 -17.46875 L 2.78125 -19.140625 L 10.90625 -7.828125 L 8.5625 -6.15625 L 5.25 -10.78125 L 0.046875 -7.046875 L 3.359375 -2.421875 Z M 1.015625 -0.734375 "/></g></g></g><g fill="#f1faee" fill-opacity="1"><g transform="translate(261.33628, 270.186368)"><g><path d="M 3.96875 -3.890625 L 0.234375 -7.6875 L -9.84375 -9.84375 L -7.46875 -12.1875 L -0.453125 -10.59375 L -1.890625 -17.65625 L 0.359375 -19.859375 L 2.3125 -9.71875 L 6.03125 -5.921875 Z M 3.96875 -3.890625 "/></g></g></g><g fill="#f1faee" fill-opacity="1"><g transform="translate(139.431711, 108.13158)"><g><path d="M -0.078125 0.03125 L -0.640625 -18.5625 L 3.125 -20.25 L 16.515625 -7.375 L 13 -5.796875 L 9.578125 -9.234375 L 3.078125 -6.34375 L 3.296875 -1.46875 Z M 2.9375 -9.390625 L 7.421875 -11.375 L 2.609375 -16.1875 Z M 2.9375 -9.390625 "/></g></g></g><g fill="#f1faee" fill-opacity="1"><g transform="translate(156.820051, 100.458634)"><g><path d="M -2.28125 -17.140625 L 1.015625 -17.890625 L 11.828125 -8.90625 L 9.375 -19.78125 L 12.625 -20.515625 L 16.421875 -3.71875 L 13.359375 -3.015625 L 2.25 -12.3125 L 4.796875 -1.078125 L 1.515625 -0.34375 Z M -2.28125 -17.140625 "/></g></g></g><g fill="#f1faee" fill-opacity="1"><g transform="translate(175.782281, 96.284723)"><g><path d="M 1.546875 -0.03125 L 1.125 -17.25 L 7.75 -17.421875 C 9.019531 -17.453125 10.21875 -17.257812 11.34375 -16.84375 C 12.46875 -16.425781 13.445312 -15.84375 14.28125 -15.09375 C 15.113281 -14.34375 15.773438 -13.4375 16.265625 -12.375 C 16.765625 -11.320312 17.03125 -10.191406 17.0625 -8.984375 C 17.082031 -7.785156 16.867188 -6.65625 16.421875 -5.59375 C 15.984375 -4.53125 15.367188 -3.609375 14.578125 -2.828125 C 13.785156 -2.046875 12.835938 -1.421875 11.734375 -0.953125 C 10.628906 -0.484375 9.441406 -0.234375 8.171875 -0.203125 Z M 7.796875 -14.25 L 4.765625 -14.171875 L 5.03125 -3.296875 L 8.0625 -3.375 C 8.8125 -3.382812 9.515625 -3.539062 10.171875 -3.84375 C 10.835938 -4.144531 11.40625 -4.539062 11.875 -5.03125 C 12.351562 -5.519531 12.722656 -6.09375 12.984375 -6.75 C 13.253906 -7.414062 13.382812 -8.128906 13.375 -8.890625 C 13.351562 -9.660156 13.191406 -10.378906 12.890625 -11.046875 C 12.597656 -11.710938 12.195312 -12.285156 11.6875 -12.765625 C 11.1875 -13.242188 10.597656 -13.613281 9.921875 -13.875 C 9.253906 -14.132812 8.546875 -14.257812 7.796875 -14.25 Z M 7.796875 -14.25 "/></g></g></g><g fill="#f1faee" fill-opacity="1"><g transform="translate(194.956836, 95.954723)"><g><path d="M 6.796875 1.15625 L 7.90625 -5.34375 L 2.75 -17 L 6.78125 -16.3125 L 10.296875 -8.125 L 16.328125 -14.6875 L 20.15625 -14.03125 L 11.40625 -4.71875 L 10.3125 1.75 Z M 6.796875 1.15625 "/></g></g></g><g fill="#f1faee" fill-opacity="1"><g transform="translate(213.378863, 99.571925)"><g><path d="M 4.90625 -9.40625 L 6.59375 -16.109375 L 9.703125 -15.125 L 7.25 -8.671875 Z M 4.90625 -9.40625 "/></g></g></g><g fill="#f1faee" fill-opacity="1"><g transform="translate(220.777665, 101.686483)"><g><path d="M 1.21875 -2.453125 L 4.125 -3.921875 C 4.675781 -2.710938 5.285156 -1.734375 5.953125 -0.984375 C 6.628906 -0.234375 7.429688 0.351562 8.359375 0.78125 C 9.335938 1.238281 10.195312 1.421875 10.9375 1.328125 C 11.6875 1.242188 12.195312 0.90625 12.46875 0.3125 C 12.71875 -0.226562 12.710938 -0.738281 12.453125 -1.21875 C 12.191406 -1.695312 11.632812 -2.226562 10.78125 -2.8125 L 7.9375 -4.765625 C 6.695312 -5.609375 5.894531 -6.546875 5.53125 -7.578125 C 5.175781 -8.609375 5.257812 -9.691406 5.78125 -10.828125 C 6.445312 -12.285156 7.53125 -13.1875 9.03125 -13.53125 C 10.53125 -13.875 12.226562 -13.609375 14.125 -12.734375 C 15.257812 -12.210938 16.3125 -11.488281 17.28125 -10.5625 C 18.257812 -9.644531 19.019531 -8.644531 19.5625 -7.5625 L 16.71875 -5.9375 C 16.175781 -6.96875 15.570312 -7.820312 14.90625 -8.5 C 14.238281 -9.175781 13.476562 -9.710938 12.625 -10.109375 C 11.769531 -10.503906 11.007812 -10.660156 10.34375 -10.578125 C 9.675781 -10.492188 9.21875 -10.1875 8.96875 -9.65625 C 8.75 -9.175781 8.742188 -8.722656 8.953125 -8.296875 C 9.171875 -7.867188 9.65625 -7.410156 10.40625 -6.921875 L 13.140625 -5.078125 C 14.566406 -4.109375 15.5 -3.070312 15.9375 -1.96875 C 16.382812 -0.875 16.332031 0.269531 15.78125 1.46875 C 15.082031 2.988281 13.921875 3.925781 12.296875 4.28125 C 10.679688 4.644531 8.878906 4.367188 6.890625 3.453125 C 5.628906 2.878906 4.503906 2.070312 3.515625 1.03125 C 2.523438 -0.0078125 1.757812 -1.171875 1.21875 -2.453125 Z M 1.21875 -2.453125 "/></g></g></g></svg>